<?xml version="1.0" encoding="UTF-8" standalone="no"?><!DOCTYPE svg PUBLIC "-//W3C//DTD SVG 1.1//EN" "http://www.w3.org/Graphics/SVG/1.1/DTD/svg11.dtd"><svg width="100%" height="100%" viewBox="0 0 840 192" version="1.1" xmlns="http://www.w3.org/2000/svg" xmlns:xlink="http://www.w3.org/1999/xlink" xml:space="preserve" xmlns:serif="http://www.serif.com/" style="fill-rule:evenodd;clip-rule:evenodd;stroke-linejoin:round;stroke-miterlimit:2;"><g><g><path d="M593.008,146.941l40.132,-104.499l14.898,0l42.769,104.499l-15.753,0l-12.189,-31.649l-43.696,0l-11.476,31.649l-14.684,0Zm30.152,-42.912l35.427,0l-10.906,-28.94c-3.326,-8.791 -5.798,-16.015 -7.413,-21.67c-1.331,6.701 -3.208,13.353 -5.631,19.959l-11.476,30.651Z" style="fill:#646464;"/><path d="M749.329,146.941l0,-9.552c-4.8,7.508 -11.857,11.263 -21.171,11.263c-6.035,0 -11.583,-1.663 -16.644,-4.99c-5.061,-3.326 -8.982,-7.972 -11.762,-13.936c-2.78,-5.964 -4.17,-12.819 -4.17,-20.565c0,-7.556 1.259,-14.411 3.778,-20.565c2.519,-6.154 6.297,-10.871 11.334,-14.149c5.037,-3.279 10.669,-4.918 16.894,-4.918c4.562,0 8.625,0.962 12.189,2.887c3.564,1.925 6.463,4.431 8.696,7.52l0,-37.494l12.759,0l0,104.499l-11.904,0Zm-40.559,-37.779c0,9.694 2.043,16.941 6.13,21.741c4.087,4.8 8.91,7.199 14.47,7.199c5.608,0 10.372,-2.293 14.292,-6.879c3.921,-4.586 5.881,-11.583 5.881,-20.993c0,-10.36 -1.996,-17.963 -5.988,-22.81c-3.992,-4.847 -8.91,-7.271 -14.755,-7.271c-5.703,0 -10.467,2.329 -14.292,6.986c-3.825,4.657 -5.738,11.999 -5.738,22.026Z" style="fill:#646464;"/><path d="M776.274,124.345l12.688,-1.996c0.713,5.085 2.697,8.982 5.952,11.69c3.255,2.709 7.805,4.063 13.651,4.063c5.893,0 10.265,-1.2 13.116,-3.6c2.851,-2.4 4.277,-5.215 4.277,-8.447c0,-2.899 -1.259,-5.18 -3.778,-6.843c-1.758,-1.141 -6.13,-2.59 -13.116,-4.348c-9.409,-2.376 -15.932,-4.431 -19.567,-6.166c-3.635,-1.735 -6.392,-4.134 -8.269,-7.199c-1.877,-3.065 -2.816,-6.451 -2.816,-10.158c0,-3.374 0.772,-6.499 2.317,-9.374c1.544,-2.875 3.647,-5.263 6.308,-7.164c1.996,-1.473 4.716,-2.721 8.162,-3.742c3.445,-1.022 7.14,-1.533 11.084,-1.533c5.94,0 11.156,0.855 15.646,2.566c4.491,1.711 7.805,4.027 9.944,6.95c2.138,2.923 3.612,6.831 4.419,11.726l-12.546,1.711c-0.57,-3.897 -2.222,-6.938 -4.954,-9.124c-2.732,-2.186 -6.594,-3.279 -11.583,-3.279c-5.893,0 -10.098,0.974 -12.617,2.923c-2.519,1.948 -3.778,4.229 -3.778,6.843c0,1.663 0.523,3.16 1.568,4.491c1.045,1.378 2.685,2.519 4.918,3.422c1.283,0.475 5.061,1.568 11.334,3.279c9.077,2.424 15.409,4.408 18.997,5.952c3.588,1.544 6.403,3.79 8.447,6.736c2.043,2.946 3.065,6.605 3.065,10.977c0,4.277 -1.247,8.304 -3.742,12.082c-2.495,3.778 -6.095,6.701 -10.799,8.768c-4.705,2.067 -10.027,3.101 -15.967,3.101c-9.837,0 -17.333,-2.043 -22.489,-6.13c-5.156,-4.087 -8.447,-10.146 -9.873,-18.177Z" style="fill:#646464;"/></g><g><path d="M249.086,190.941c-11.985,-0.888 -32.638,-6.157 -33.625,-9.189c-0.435,-1.337 -0.566,-1.738 5.196,-16.789c1.873,-4.891 1.812,-7.016 6.765,-5.323c7.29,2.491 7.358,2.177 14.887,3.899c4.627,1.058 19.351,0.694 21.893,0.011c16.257,-4.366 19.176,-15.654 20.391,-23.692c0.048,-0.319 0.572,-3.785 -2.083,-3.449c-1.215,0.154 -0.985,0.535 -1.919,1.318c-2.969,2.49 -8.713,5.208 -12.977,6.137c-13.644,2.972 -15.434,1.731 -25.364,0.069c-6.496,-1.088 -15.154,-5.925 -17.889,-7.964c-10.592,-7.894 -14.446,-17.81 -15.165,-19.662c-3.11,-8.001 -3.01,-11.782 -3.263,-14.966c-0.215,-2.695 -1.522,-19.107 6.933,-33.073c11.72,-19.36 30.588,-23.339 32.798,-23.966c2.122,-0.601 11.638,-1.802 13.435,-1.84c3.07,-0.065 23.449,-0.498 37.043,10.075c16.274,12.657 18.32,26.627 19.957,35.428c0.661,3.556 0.979,5.264 0.705,45.205c-0.135,19.684 -8.316,33.925 -14.072,40.259c-1.585,1.744 -10.411,11.456 -25.082,15.448c-7.133,1.941 -10.329,2.398 -28.564,2.064Zm13.378,-118.78c-0.411,0.007 -4.198,0.069 -5.133,0.221c-21.17,3.432 -25.431,33.923 -6.327,43.494c3.279,1.643 10.039,2.486 11.458,2.379c27.997,-2.097 27.972,-37.227 8.097,-44.573c-3.898,-1.441 -3.936,-1.283 -8.094,-1.522Z" style="fill:#646464;"/><path d="M539.094,148.989c-14.238,0.56 -14.185,1.257 -28.46,1.257c-9.2,-0 -9.151,-0.38 -18.349,-1.143c-2.312,-0.192 -13.566,-2.588 -19.897,-6.328c-8.641,-5.104 -11.899,-10.791 -13.925,-19.589c-0.295,-1.282 -1.244,-9.813 0.019,-15.19c2.767,-11.78 7.914,-15.353 13.394,-18.812c6.558,-4.138 15.526,-5.214 16.938,-5.384c7.86,-0.943 7.793,-1.567 16.8,-1.57c9.83,-0.004 9.824,-0.176 13.451,0.129c4.019,0.339 5.965,1.195 5.566,-2.804c-0.331,-3.318 -6.148,-10.188 -15.614,-10.737c-4.118,-0.239 -18.398,-2.018 -31.551,3.197c-2.59,1.027 -2.529,1.266 -3.651,1.234c-4.666,-0.133 -14.364,-18.119 -0.055,-25.535c8.711,-4.514 12.492,-3.768 18.496,-4.722c1.189,-0.189 5.826,-0.926 15.041,-0.516c1.91,0.085 5.555,0.791 8.281,0.975c1.921,0.13 11.595,0.783 23.09,6.796c2.649,1.386 5.262,3.598 5.685,3.956c15.321,12.972 13.541,27.515 13.541,65.568c0,25.527 0.327,26.332 -1.865,27.205c-0.229,0.091 -11.739,1.806 -11.858,1.817c-0.405,0.038 -0.376,0.014 -5.078,0.194Zm-28.46,-21.744c12.417,0.275 14.346,-0.09 14.619,-4.155c0.037,-0.548 0.053,-14.308 -0.013,-14.984c-0.399,-4.101 -3.212,-3.886 -16.275,-4.282c-3.803,-0.115 -13.773,0.925 -16.867,5.815c-4.398,6.952 -1.405,13.455 4.938,15.748c6.519,2.357 6.649,1.819 13.599,1.858Z" style="fill:#646464;"/><path d="M38.238,147.438c-15.723,-0.362 -15.761,0.167 -17.065,-0.238c-1.688,-0.525 -1.345,-2.113 -1.3,-2.321c0.188,-0.868 17.455,-39.782 18.987,-43.235c2.035,-4.587 25.321,-57.066 25.366,-57.372c0.094,-0.64 -0.776,-2.452 -1.118,-2.618c-0.409,-0.198 -0.432,-0.163 -31.562,-0.163c-14.367,-0 -28.336,1.726 -31.055,-10.546c-1.671,-7.541 1.425,-15.584 1.912,-16.85c1.901,-4.939 4.026,-3.855 10.737,-3.855c74.876,-0.002 74.92,-0.064 77.033,0.576c10.584,3.209 11.826,13.078 11.93,13.529c2.637,11.503 -10.415,34.694 -21.915,62.02c-2.033,4.832 -6.638,15.178 -7.224,16.494c-2.089,4.693 -18.035,41.121 -18.398,41.814c-1.761,3.368 -3.978,2.765 -16.329,2.765Z" style="fill:#646464;"/><path d="M157.032,147.438c-15.942,-0.367 -15.93,0.171 -21.867,-0.099c-0.303,-0.014 -3.546,-0.162 -2.922,-2.408c0.072,-0.26 4.709,-10.664 5.121,-11.59c0.621,-1.393 32.691,-74.404 33.133,-75.439c3.386,-7.922 6.42,-13.585 6.081,-14.982c-0.017,-0.071 -1.213,-1.32 -1.294,-1.351c-0.438,-0.166 -0.42,-0.078 -13.231,-0.078c-35.051,0 -35.126,0.187 -40.361,-1.233c-10.527,-2.855 -10.239,-15.215 -8.143,-22.542c1.737,-6.073 2.754,-6.896 4.861,-7.372c2.119,-0.478 72.483,-0.133 78.786,-0.102c1.172,0.006 9.297,0.046 13.501,5.694c6.276,8.432 4.633,16.436 0.093,28.632c-1.375,3.696 -43.248,98.808 -43.908,100.205c-1.534,3.248 -4.818,2.659 -9.848,2.665Z" style="fill:#646464;"/><path d="M401.217,147.438c-17.989,-0.414 -18.484,0.335 -19.545,-1.277c-0.629,-0.956 -0.546,-1.07 -0.546,-38.1c-0,-30.709 -1.965,-43.583 13.684,-56.532c5.795,-4.795 15.264,-7.521 18.212,-7.938c0.659,-0.093 6.727,-0.95 8.256,-1.067c16.472,-1.266 45.732,5.087 33.767,27.215c-3.829,7.081 -5.893,5.181 -8.483,4.339c-18.951,-6.155 -27.298,0.49 -28.644,2.164c-4.724,5.879 -4.338,10.523 -4.339,16.76c-0.004,52.362 0.122,52.587 -0.739,53.457c-1.245,1.257 -4.535,0.978 -11.624,0.978Z" style="fill:#646464;"/><path d="M343.325,147.438c-7.855,-0.271 -9.984,0.292 -10.604,-2.434c-0.097,-0.428 -0.086,-0.434 -0.086,-68.733c0,-17.068 -1.07,-23.406 5.875,-28.138c8.057,-5.49 21.625,-1.444 23.422,-0.909c3.862,1.151 3.157,5.698 3.157,10.642c0.001,86.575 0.002,86.571 -0.076,86.993c-0.567,3.083 -1.942,2.578 -21.688,2.578Zm8.318,-147.388c0.3,0.058 4.677,0.181 8.8,3.823c13.126,11.598 4.707,34.884 -15.335,31.516c-13.228,-2.223 -20.657,-22.952 -5.367,-33.139c4.343,-2.893 10.303,-2.149 11.903,-2.2Z" style="fill:#646464;"/></g></g></svg>