<?xml version="1.0" encoding="UTF-8" standalone="no"?><!DOCTYPE svg PUBLIC "-//W3C//DTD SVG 1.1//EN" "http://www.w3.org/Graphics/SVG/1.1/DTD/svg11.dtd"><svg width="100%" height="100%" viewBox="0 0 162 162" version="1.1" xmlns="http://www.w3.org/2000/svg" xmlns:xlink="http://www.w3.org/1999/xlink" xml:space="preserve" xmlns:serif="http://www.serif.com/" style="fill-rule:evenodd;clip-rule:evenodd;stroke-linejoin:round;stroke-miterlimit:2;"><path d="M24.249,16.166c-4.464,0 -8.083,3.619 -8.083,8.083l0,16.166c0,4.464 -3.619,8.083 -8.083,8.083c-4.464,0 -8.083,-3.619 -8.083,-8.083l0,-16.166c0,-13.392 10.857,-24.249 24.249,-24.249l16.166,0c4.464,0 8.083,3.619 8.083,8.083c0,4.464 -3.619,8.083 -8.083,8.083l-16.166,0Z" style="fill:#fff;fill-rule:nonzero;"/><path d="M113.162,8.083c0,-4.464 3.619,-8.083 8.083,-8.083l16.166,0c13.393,0 24.249,10.857 24.249,24.249l0,16.166c0,4.464 -3.619,8.083 -8.083,8.083c-4.464,0 -8.083,-3.619 -8.083,-8.083l0,-16.166c0,-4.464 -3.619,-8.083 -8.083,-8.083l-16.166,0c-4.464,0 -8.083,-3.619 -8.083,-8.083Z" style="fill:#fff;fill-rule:nonzero;"/><path d="M8.083,113.162c4.464,0 8.083,3.619 8.083,8.083l0,16.166c0,4.464 3.619,8.083 8.083,8.083l16.166,0c4.464,0 8.083,3.619 8.083,8.083c0,4.464 -3.619,8.083 -8.083,8.083l-16.166,0c-13.392,0 -24.249,-10.856 -24.249,-24.249l0,-16.166c0,-4.464 3.619,-8.083 8.083,-8.083Z" style="fill:#fff;fill-rule:nonzero;"/><path d="M153.578,113.162c4.464,0 8.083,3.619 8.083,8.083l0,16.166c0,13.393 -10.856,24.249 -24.249,24.249l-16.166,0c-4.464,0 -8.083,-3.619 -8.083,-8.083c0,-4.464 3.619,-8.083 8.083,-8.083l16.166,0c4.464,0 8.083,-3.619 8.083,-8.083l0,-16.166c0,-4.464 3.619,-8.083 8.083,-8.083Z" style="fill:#fff;fill-rule:nonzero;"/><path d="M24.249,64.664c0,4.464 3.619,8.083 8.083,8.083l32.332,0c4.464,0 8.083,-3.619 8.083,-8.083l0,-32.332c0,-4.464 -3.619,-8.083 -8.083,-8.083l-32.332,0c-4.464,0 -8.083,3.619 -8.083,8.083l0,32.332Zm16.166,-8.083l0,-16.166l16.166,0l0,16.166l-16.166,0Z" style="fill:#fff;"/><path d="M32.332,137.411c-4.464,0 -8.083,-3.619 -8.083,-8.083l0,-32.332c0,-4.464 3.619,-8.083 8.083,-8.083l32.332,0c4.464,0 8.083,3.619 8.083,8.083l0,32.332c0,4.464 -3.619,8.083 -8.083,8.083l-32.332,0Zm8.083,-32.332l0,16.166l16.166,0l0,-16.166l-16.166,0Z" style="fill:#fff;"/><path d="M88.913,64.664c0,4.464 3.619,8.083 8.083,8.083l32.332,0c4.464,0 8.083,-3.619 8.083,-8.083l0,-32.332c0,-4.464 -3.619,-8.083 -8.083,-8.083l-32.332,0c-4.464,0 -8.083,3.619 -8.083,8.083l0,32.332Zm16.166,-8.083l0,-16.166l16.166,0l0,16.166l-16.166,0Z" style="fill:#fff;"/><path d="M96.996,137.411c-4.464,0 -8.083,-3.619 -8.083,-8.083l0,-32.332c0,-4.464 3.619,-8.083 8.083,-8.083l32.332,0c4.464,0 8.083,3.619 8.083,8.083l0,32.332c0,4.464 -3.619,8.083 -8.083,8.083l-32.332,0Zm8.083,-32.332l0,16.166l16.166,0l0,-16.166l-16.166,0Z" style="fill:#fff;"/></svg>