<?xml version="1.0" encoding="UTF-8" standalone="no"?><!DOCTYPE svg PUBLIC "-//W3C//DTD SVG 1.1//EN" "http://www.w3.org/Graphics/SVG/1.1/DTD/svg11.dtd"><svg width="100%" height="100%" viewBox="0 0 218 218" version="1.1" xmlns="http://www.w3.org/2000/svg" xmlns:xlink="http://www.w3.org/1999/xlink" xml:space="preserve" xmlns:serif="http://www.serif.com/" style="fill-rule:evenodd;clip-rule:evenodd;stroke-linejoin:round;stroke-miterlimit:2;"><rect x="30.253" y="30.319" width="161.815" height="159.787"/><path d="M108.451,43.209c-34.377,0 -62.478,26.852 -64.484,60.726l45.62,0c0.969,0 1.098,-1.131 1.098,-1.131l0,-9.077c0,-1.855 1.504,-3.359 3.359,-3.359l29.46,0c1.855,0 3.359,1.504 3.359,3.359l0,29.46c0,1.855 -1.504,3.359 -3.359,3.359l-29.46,0c-1.855,0 -3.359,-1.504 -3.359,-3.359l0,-10.072c0,0 -0.052,-1.105 -1.059,-1.105l-45.638,0c2.164,33.721 30.195,60.403 64.463,60.403c35.679,0 64.603,-28.923 64.603,-64.602c0,-35.679 -28.924,-64.603 -64.603,-64.603m108.632,127.256c0,25.746 -20.872,46.618 -46.618,46.618l-123.848,0c-25.746,0 -46.618,-20.872 -46.618,-46.618l0,-123.848c0,-25.746 20.872,-46.618 46.618,-46.618l123.848,0c25.746,0 46.618,20.872 46.618,46.618l0,123.848Z" style="fill:#e3e3e3;fill-rule:nonzero;"/></svg>