<?xml version="1.0" encoding="UTF-8" standalone="no"?><!DOCTYPE svg PUBLIC "-//W3C//DTD SVG 1.1//EN" "http://www.w3.org/Graphics/SVG/1.1/DTD/svg11.dtd"><svg width="100%" height="100%" viewBox="0 0 218 218" version="1.1" xmlns="http://www.w3.org/2000/svg" xmlns:xlink="http://www.w3.org/1999/xlink" xml:space="preserve" xmlns:serif="http://www.serif.com/" style="fill-rule:evenodd;clip-rule:evenodd;stroke-linejoin:round;stroke-miterlimit:2;"><g><path id="a" d="M216.667,35.833l0,145.417c0,19.583 -15.833,35.833 -35.833,35.833l-145,0c-19.583,0 -35.833,-15.833 -35.833,-35.833l0,-145.417c0,-20 15.833,-35.833 35.833,-35.833l145.417,0c19.583,0 35.833,15.833 35.833,35.833l-0.417,0Z" style="fill:#3cf;"/><path d="M114.583,153.75l-13.333,0c-1.667,-7.5 -8.333,-12.917 -15.833,-12.917c-7.5,0 -10.833,2.917 -13.75,7.5c-5,-2.5 -9.167,-5.833 -12.917,-9.583c-4.583,-4.583 -7.083,-8.75 -8.333,-11.667c2.917,-0.833 5.833,-2.083 7.917,-4.583c2.917,-2.917 4.167,-7.083 4.167,-11.25l0,-9.583c0,-11.667 3.75,-22.917 10.833,-31.667c10,-12.917 25,-20.417 40.833,-20.417c15.833,0 26.667,5.417 36.667,15.417c9.583,9.583 15.417,22.917 15,36.667c0,13.75 -5.417,27.083 -15,36.667c-9.583,9.583 -22.5,15.417 -36.667,15.417" style="fill:#fff;"/><path d="M114.583,153.75l-13.333,0c-1.667,-7.5 -8.333,-12.917 -15.833,-12.917c-7.5,0 -10.833,2.917 -13.75,7.5c-5,-2.5 -9.167,-5.833 -12.917,-9.583c-4.583,-4.583 -7.083,-8.75 -8.333,-11.667c2.917,-0.833 5.833,-2.083 7.917,-4.583c2.917,-2.917 4.167,-7.083 4.167,-11.25l0,-9.583c0,-11.667 3.75,-22.917 10.833,-31.667c10,-12.917 25,-20.417 40.833,-20.417c15.833,0 26.667,5.417 36.667,15.417c9.583,9.583 15.417,22.917 15,36.667c0,13.75 -5.417,27.083 -15,36.667c-9.583,9.583 -22.5,15.417 -36.667,15.417m58.75,-51.667c0,-15.417 -6.25,-30.417 -17.083,-41.25c-10.833,-10.833 -25.417,-17.083 -41.25,-17.083c-15.833,0 -34.167,7.917 -45.833,22.083c-8.333,10.417 -12.5,23.333 -12.5,36.25l0,9.583c0,5 -3.75,10 -10.417,10c-6.667,0 -2.083,0.833 -2.5,1.667c-1.25,4.167 3.75,12.917 10.833,20c4.583,4.583 9.583,8.333 15.417,11.25c-1.667,8.75 4.167,17.083 13.333,18.75l2.917,0c7.917,0 14.583,-5.417 15.833,-12.917l13.75,0c1.667,9.167 11.25,15.417 21.667,12.083c4.583,-1.667 7.917,-5 9.583,-9.167c1.667,-4.167 1.25,-8.333 0,-11.667c3.75,-2.083 7.083,-5 10,-7.917c10.833,-10.833 17.083,-25.833 17.083,-41.25"/><path d="M147.083,88.75c0,-3.75 -2.917,-6.667 -6.25,-6.667c-3.333,0 -6.25,2.917 -6.25,6.667c0,3.75 2.917,6.667 6.25,6.667c3.333,0 6.25,-2.917 6.25,-6.667m-38.75,0c0,-3.75 -2.917,-6.667 -6.25,-6.667c-3.333,0 -6.25,2.917 -6.25,6.667c0,3.75 2.917,6.667 6.25,6.667c3.333,0 6.25,-2.917 6.25,-6.667m-4.583,21.25c-0.417,-1.25 -1.667,-1.667 -2.917,-1.667c-1.667,0 -3.333,1.667 -3.333,3.333l0,1.25c4.167,9.167 13.333,15 23.333,15c10,0 19.167,-5.833 23.333,-15c0.833,-1.667 0,-3.75 -1.667,-4.167l-1.25,0c-1.25,0 -2.5,0.833 -2.917,1.667c-3.333,6.667 -10,11.25 -17.5,11.25c-7.5,0 -14.167,-4.167 -17.5,-11.25"/></g></svg>