<?xml version="1.0" encoding="UTF-8" standalone="no"?><!DOCTYPE svg PUBLIC "-//W3C//DTD SVG 1.1//EN" "http://www.w3.org/Graphics/SVG/1.1/DTD/svg11.dtd"><svg width="100%" height="100%" viewBox="0 0 490 499" version="1.1" xmlns="http://www.w3.org/2000/svg" xmlns:xlink="http://www.w3.org/1999/xlink" xml:space="preserve" xmlns:serif="http://www.serif.com/" style="fill-rule:evenodd;clip-rule:evenodd;stroke-linejoin:round;stroke-miterlimit:2;"><g><path d="M251.939,483.722l-57.485,-94.655c-6.673,-10.987 -6.825,-24.738 -0.398,-35.87l117.833,-204.092c3.127,-5.416 8.893,-8.766 15.147,-8.799l68.427,-0.368c0,0 23.272,-0.442 36.423,18.94c14.445,21.289 -0.54,48.796 -0.54,48.796l-84.078,141.398l0.014,0l-95.342,134.65Zm104.8,-134.65l115.326,0c9.606,0 17.404,7.799 17.404,17.404l0,114.512c-0,9.606 -7.799,17.404 -17.404,17.404l-201.34,0c-4.668,0 -9.144,-1.854 -12.445,-5.155c-0.525,-0.525 -1.013,-1.08 -1.464,-1.66l99.922,-142.506Z" style="fill:#253544;"/><path d="M237.53,14.671l57.485,94.655c6.673,10.987 6.825,24.738 0.398,35.87l-117.833,204.092c-3.127,5.416 -8.893,8.766 -15.147,8.799l-68.427,0.368c0,0 -23.272,0.442 -36.423,-18.94c-14.445,-21.289 0.54,-48.796 0.54,-48.796l84.078,-141.398l-0.014,0l95.342,-134.65Zm-104.8,134.65l-115.326,0c-9.606,0 -17.404,-7.799 -17.404,-17.404l-0,-114.512c0,-9.606 7.799,-17.404 17.404,-17.404l201.34,-0c4.668,-0 9.144,1.854 12.445,5.155c0.525,0.525 1.013,1.08 1.464,1.66l-99.922,142.506Z" style="fill:#253544;"/></g></svg>