<?xml version="1.0" encoding="UTF-8" standalone="no"?>
<svg width="100%" height="100%" viewBox="0 0 459 468" version="1.1" xmlns="http://www.w3.org/2000/svg">
  <path d="M236.179,453.464l-53.889,-88.734c-6.255,-10.3 -6.398,-23.19 -0.373,-33.627l110.462,-191.326c2.931,-5.077 8.337,-8.217 14.199,-8.249l64.146,-0.345c0,0 21.816,-0.414 34.145,17.755c13.542,19.957 -0.506,45.744 -0.506,45.744l-78.819,132.554l0.013,0l-89.378,126.228Zm98.244,-126.228l108.112,0c9.005,0 16.316,7.311 16.316,16.316l0,107.35c-0,9.005 -7.311,16.316 -16.316,16.316l-188.746,0c-4.376,0 -8.572,-1.738 -11.666,-4.832c-0.492,-0.492 -0.95,-1.012 -1.372,-1.556l93.672,-133.592Zm-111.752,-313.483l53.889,88.734c6.255,10.3 6.398,23.19 0.373,33.627l-110.462,191.326c-2.931,5.077 -8.337,8.217 -14.199,8.249l-64.146,0.345c0,0 -21.816,0.414 -34.145,-17.755c-13.542,-19.957 0.506,-45.744 0.506,-45.744l78.819,-132.554l-0.013,0l89.378,-126.228Zm-98.244,126.228l-108.112,0c-9.005,0 -16.316,-7.311 -16.316,-16.316l-0,-107.35c0,-9.005 7.311,-16.316 16.316,-16.316l188.746,-0c4.376,-0 8.572,1.738 11.666,4.832c0.492,0.492 0.95,1.012 1.372,1.556l-93.672,133.592Z" fill="currentColor"/>
</svg>
