<?xml version="1.0" encoding="UTF-8" standalone="no"?><!DOCTYPE svg PUBLIC "-//W3C//DTD SVG 1.1//EN" "http://www.w3.org/Graphics/SVG/1.1/DTD/svg11.dtd"><svg width="100%" height="100%" viewBox="0 0 1537 492" version="1.1" xmlns="http://www.w3.org/2000/svg" xmlns:xlink="http://www.w3.org/1999/xlink" xml:space="preserve" xmlns:serif="http://www.serif.com/" style="fill-rule:evenodd;clip-rule:evenodd;stroke-linejoin:round;stroke-miterlimit:2;"><g><path d="M768.402,154.851c-22.53,27.866 -40.268,54.547 -53.213,80.042c-12.945,25.495 -19.418,51.978 -19.418,79.449l0,17.491l-65.812,0c0,-26.878 5.781,-53.312 17.342,-79.301c11.562,-25.989 27.224,-50.545 46.988,-73.668l-97.829,0l0,-50.99l171.942,0l0,26.977Z" style="fill:#f39320;fill-rule:nonzero;"/><path d="M946.908,154.851c-22.53,27.866 -40.268,54.547 -53.213,80.042c-12.945,25.495 -19.418,51.978 -19.418,79.449l0,17.491l-65.812,0c0,-26.878 5.781,-53.312 17.342,-79.301c11.562,-25.989 27.224,-50.545 46.988,-73.668l-97.829,0l0,-50.99l171.942,0l0,26.977Z" style="fill:#f39320;fill-rule:nonzero;"/><path d="M1058.077,124.316c19.566,0 37.155,2.965 52.768,8.894c15.613,5.929 28.015,14.674 37.205,26.236c9.19,11.562 13.785,25.643 13.785,42.244l-62.551,0c0,-8.498 -3.755,-15.366 -11.265,-20.603c-7.51,-5.237 -16.601,-7.856 -27.274,-7.856c-15.415,0 -27.076,4.101 -34.981,12.303c-7.905,8.202 -11.858,19.813 -11.858,34.833l0,18.973c0,15.02 3.953,26.631 11.858,34.833c7.905,8.202 19.566,12.303 34.981,12.303c10.672,0 19.763,-2.52 27.274,-7.56c7.51,-5.04 11.265,-11.512 11.265,-19.418l-46.246,0l0,-41.503l108.798,0l0,113.837l-33.795,0l-6.522,-20.159c-18.578,15.811 -42.887,23.716 -72.927,23.716c-33.795,0 -59.191,-8.844 -76.188,-26.532c-16.997,-17.688 -25.495,-44.023 -25.495,-79.004c0,-34.586 9.635,-60.822 28.904,-78.708c19.269,-17.886 46.691,-26.829 82.265,-26.829Z" style="fill:#f39320;fill-rule:nonzero;"/><path d="M1176.937,156.926l0,-40.021l58.994,0l0,40.021l-58.994,0Zm0,174.906l0,-156.526l58.994,0l0,156.526l-58.994,0Z" style="fill:#f39320;fill-rule:nonzero;"/><path d="M1347.909,171.452c4.546,0 8.597,0.543 12.155,1.63c3.557,1.087 5.336,1.729 5.336,1.927l0,49.507l-18.973,0c-12.253,0 -21.097,3.162 -26.532,9.486c-5.435,6.324 -8.152,15.712 -8.152,28.163l0,69.666l-58.994,0l0,-156.526l48.322,0l3.854,23.716c3.557,-9.091 9.19,-15.959 16.898,-20.603c7.708,-4.644 16.404,-6.967 26.088,-6.967Z" style="fill:#f39320;fill-rule:nonzero;"/><path d="M1435.293,172.046c23.914,0 43.381,4.002 58.401,12.006c15.02,8.004 22.53,20.999 22.53,38.983l0,61.069c0,3.36 0.791,6.127 2.372,8.301c1.581,2.174 3.953,3.261 7.115,3.261l10.672,0l0,34.092c-0.593,0.395 -2.125,1.038 -4.595,1.927c-2.47,0.889 -5.978,1.779 -10.524,2.668c-4.546,0.889 -9.783,1.334 -15.712,1.334c-11.463,0 -20.9,-1.729 -28.311,-5.188c-7.411,-3.459 -12.5,-8.251 -15.267,-14.378c-7.51,5.929 -15.91,10.672 -25.198,14.23c-9.289,3.557 -20.159,5.336 -32.61,5.336c-36.76,0 -55.14,-14.625 -55.14,-43.875c0,-15.218 4.101,-26.829 12.303,-34.833c8.202,-8.004 20.01,-13.489 35.426,-16.453c15.415,-2.965 35.574,-4.447 60.476,-4.447l0,-7.708c0,-6.127 -2.125,-10.771 -6.374,-13.933c-4.249,-3.162 -9.733,-4.743 -16.453,-4.743c-6.127,0 -11.413,1.087 -15.86,3.261c-4.447,2.174 -6.67,5.633 -6.67,10.376l0,1.186l-58.104,0c-0.198,-0.988 -0.296,-2.372 -0.296,-4.15c0,-14.823 7.065,-26.582 21.196,-35.278c14.131,-8.696 34.339,-13.044 60.624,-13.044Zm21.937,91.9c-16.799,0 -29.2,1.828 -37.205,5.484c-8.004,3.656 -12.006,8.548 -12.006,14.674c0,9.882 6.72,14.823 20.159,14.823c7.708,0 14.477,-2.075 20.307,-6.225c5.83,-4.15 8.745,-9.289 8.745,-15.415l0,-13.34Z" style="fill:#f39320;fill-rule:nonzero;"/><path d="M236.179,453.464l-53.889,-88.734c-6.255,-10.3 -6.398,-23.19 -0.373,-33.627l110.462,-191.326c2.931,-5.077 8.337,-8.217 14.199,-8.249l64.146,-0.345c0,0 21.816,-0.414 34.145,17.755c13.542,19.957 -0.506,45.744 -0.506,45.744l-78.819,132.554l0.013,0l-89.378,126.228Zm98.244,-126.228l108.112,0c9.005,0 16.316,7.311 16.316,16.316l0,107.35c-0,9.005 -7.311,16.316 -16.316,16.316l-188.746,0c-4.376,0 -8.572,-1.738 -11.666,-4.832c-0.492,-0.492 -0.95,-1.012 -1.372,-1.556l93.672,-133.592Zm-111.752,-313.483l53.889,88.734c6.255,10.3 6.398,23.19 0.373,33.627l-110.462,191.326c-2.931,5.077 -8.337,8.217 -14.199,8.249l-64.146,0.345c0,0 -21.816,0.414 -34.145,-17.755c-13.542,-19.957 0.506,-45.744 0.506,-45.744l78.819,-132.554l-0.013,0l89.378,-126.228Zm-98.244,126.228l-108.112,0c-9.005,0 -16.316,-7.311 -16.316,-16.316l-0,-107.35c0,-9.005 7.311,-16.316 16.316,-16.316l188.746,-0c4.376,-0 8.572,1.738 11.666,4.832c0.492,0.492 0.95,1.012 1.372,1.556l-93.672,133.592Z" style="fill:url(#_Radial1);"/><g><path d="M618.944,472.079l0,-60.191l-22.484,0l0,-8.053l54.093,0l0,8.053l-22.578,0l0,60.191l-9.031,0Z" style="fill:#c3b9c8;fill-rule:nonzero;"/><path d="M645.06,447.36c0,-9.155 2.545,-15.936 7.634,-20.343c4.252,-3.662 9.434,-5.493 15.548,-5.493c6.797,0 12.352,2.227 16.665,6.68c4.314,4.453 6.471,10.606 6.471,18.458c0,6.362 -0.954,11.366 -2.863,15.013c-1.909,3.647 -4.686,6.478 -8.333,8.496c-3.647,2.017 -7.627,3.026 -11.94,3.026c-6.921,0 -12.515,-2.219 -16.782,-6.657c-4.267,-4.438 -6.401,-10.831 -6.401,-19.179Zm8.612,0c0,6.331 1.381,11.072 4.143,14.222c2.762,3.15 6.238,4.725 10.428,4.725c4.159,0 7.619,-1.583 10.381,-4.748c2.762,-3.166 4.143,-7.991 4.143,-14.478c0,-6.114 -1.389,-10.746 -4.166,-13.896c-2.778,-3.15 -6.23,-4.725 -10.358,-4.725c-4.19,0 -7.665,1.567 -10.428,4.702c-2.762,3.134 -4.143,7.867 -4.143,14.198Z" style="fill:#c3b9c8;fill-rule:nonzero;"/><path d="M733.275,472.079l0,-6.238c-3.134,4.903 -7.743,7.355 -13.826,7.355c-3.941,0 -7.565,-1.086 -10.87,-3.259c-3.305,-2.172 -5.865,-5.206 -7.681,-9.101c-1.816,-3.895 -2.723,-8.372 -2.723,-13.43c0,-4.934 0.822,-9.411 2.467,-13.43c1.645,-4.019 4.112,-7.099 7.402,-9.24c3.29,-2.141 6.967,-3.212 11.033,-3.212c2.979,0 5.633,0.628 7.96,1.885c2.328,1.257 4.221,2.894 5.679,4.911l0,-24.486l8.333,0l0,68.245l-7.774,0Zm-26.488,-24.672c0,6.331 1.334,11.064 4.003,14.198c2.669,3.134 5.819,4.702 9.45,4.702c3.662,0 6.773,-1.497 9.334,-4.492c2.56,-2.995 3.841,-7.565 3.841,-13.709c0,-6.765 -1.303,-11.731 -3.91,-14.897c-2.607,-3.166 -5.819,-4.748 -9.636,-4.748c-3.724,0 -6.835,1.521 -9.334,4.562c-2.498,3.041 -3.747,7.836 -3.747,14.384Z" style="fill:#c3b9c8;fill-rule:nonzero;"/><path d="M751.104,447.36c0,-9.155 2.545,-15.936 7.634,-20.343c4.252,-3.662 9.434,-5.493 15.548,-5.493c6.797,0 12.352,2.227 16.665,6.68c4.314,4.453 6.471,10.606 6.471,18.458c0,6.362 -0.954,11.366 -2.863,15.013c-1.909,3.647 -4.686,6.478 -8.333,8.496c-3.647,2.017 -7.627,3.026 -11.94,3.026c-6.921,0 -12.515,-2.219 -16.782,-6.657c-4.267,-4.438 -6.401,-10.831 -6.401,-19.179Zm8.612,0c0,6.331 1.381,11.072 4.143,14.222c2.762,3.15 6.238,4.725 10.428,4.725c4.159,0 7.619,-1.583 10.381,-4.748c2.762,-3.166 4.143,-7.991 4.143,-14.478c0,-6.114 -1.389,-10.746 -4.166,-13.896c-2.778,-3.15 -6.23,-4.725 -10.358,-4.725c-4.19,0 -7.665,1.567 -10.428,4.702c-2.762,3.134 -4.143,7.867 -4.143,14.198Z" style="fill:#c3b9c8;fill-rule:nonzero;"/><path d="M803.894,457.322l8.286,-1.303c0.466,3.321 1.761,5.865 3.887,7.634c2.126,1.769 5.097,2.653 8.915,2.653c3.848,0 6.703,-0.784 8.565,-2.351c1.862,-1.567 2.793,-3.406 2.793,-5.516c0,-1.893 -0.822,-3.383 -2.467,-4.469c-1.148,-0.745 -4.003,-1.691 -8.565,-2.84c-6.145,-1.552 -10.404,-2.894 -12.778,-4.027c-2.374,-1.133 -4.174,-2.7 -5.4,-4.702c-1.226,-2.002 -1.839,-4.213 -1.839,-6.634c0,-2.203 0.504,-4.244 1.513,-6.122c1.009,-1.878 2.382,-3.437 4.12,-4.678c1.303,-0.962 3.08,-1.777 5.33,-2.444c2.25,-0.667 4.663,-1.001 7.239,-1.001c3.879,0 7.285,0.559 10.218,1.676c2.933,1.117 5.097,2.63 6.494,4.539c1.397,1.909 2.359,4.461 2.886,7.658l-8.193,1.117c-0.372,-2.545 -1.451,-4.531 -3.235,-5.959c-1.784,-1.428 -4.306,-2.141 -7.565,-2.141c-3.848,0 -6.595,0.636 -8.24,1.909c-1.645,1.272 -2.467,2.762 -2.467,4.469c0,1.086 0.341,2.064 1.024,2.933c0.683,0.9 1.753,1.645 3.212,2.234c0.838,0.31 3.305,1.024 7.402,2.141c5.928,1.583 10.063,2.878 12.406,3.887c2.343,1.009 4.182,2.475 5.516,4.399c1.334,1.924 2.002,4.314 2.002,7.169c0,2.793 -0.815,5.423 -2.444,7.89c-1.629,2.467 -3.98,4.376 -7.053,5.726c-3.072,1.35 -6.548,2.025 -10.428,2.025c-6.424,0 -11.32,-1.334 -14.687,-4.003c-3.367,-2.669 -5.516,-6.626 -6.447,-11.871Z" style="fill:#c3b9c8;fill-rule:nonzero;"/><path d="M878.283,447.36c0,-9.155 2.545,-15.936 7.634,-20.343c4.252,-3.662 9.434,-5.493 15.548,-5.493c6.797,0 12.352,2.227 16.665,6.68c4.314,4.453 6.471,10.606 6.471,18.458c0,6.362 -0.954,11.366 -2.863,15.013c-1.909,3.647 -4.686,6.478 -8.333,8.496c-3.647,2.017 -7.627,3.026 -11.94,3.026c-6.921,0 -12.515,-2.219 -16.782,-6.657c-4.267,-4.438 -6.401,-10.831 -6.401,-19.179Zm8.612,0c0,6.331 1.381,11.072 4.143,14.222c2.762,3.15 6.238,4.725 10.428,4.725c4.159,0 7.619,-1.583 10.381,-4.748c2.762,-3.166 4.143,-7.991 4.143,-14.478c0,-6.114 -1.389,-10.746 -4.166,-13.896c-2.778,-3.15 -6.23,-4.725 -10.358,-4.725c-4.19,0 -7.665,1.567 -10.428,4.702c-2.762,3.134 -4.143,7.867 -4.143,14.198Z" style="fill:#c3b9c8;fill-rule:nonzero;"/><path d="M931.073,457.322l8.286,-1.303c0.466,3.321 1.761,5.865 3.887,7.634c2.126,1.769 5.097,2.653 8.915,2.653c3.848,0 6.703,-0.784 8.565,-2.351c1.862,-1.567 2.793,-3.406 2.793,-5.516c0,-1.893 -0.822,-3.383 -2.467,-4.469c-1.148,-0.745 -4.003,-1.691 -8.565,-2.84c-6.145,-1.552 -10.404,-2.894 -12.778,-4.027c-2.374,-1.133 -4.174,-2.7 -5.4,-4.702c-1.226,-2.002 -1.839,-4.213 -1.839,-6.634c0,-2.203 0.504,-4.244 1.513,-6.122c1.009,-1.878 2.382,-3.437 4.12,-4.678c1.303,-0.962 3.08,-1.777 5.33,-2.444c2.25,-0.667 4.663,-1.001 7.239,-1.001c3.879,0 7.285,0.559 10.218,1.676c2.933,1.117 5.097,2.63 6.494,4.539c1.397,1.909 2.359,4.461 2.886,7.658l-8.193,1.117c-0.372,-2.545 -1.451,-4.531 -3.235,-5.959c-1.784,-1.428 -4.306,-2.141 -7.565,-2.141c-3.848,0 -6.595,0.636 -8.24,1.909c-1.645,1.272 -2.467,2.762 -2.467,4.469c0,1.086 0.341,2.064 1.024,2.933c0.683,0.9 1.753,1.645 3.212,2.234c0.838,0.31 3.305,1.024 7.402,2.141c5.928,1.583 10.063,2.878 12.406,3.887c2.343,1.009 4.182,2.475 5.516,4.399c1.334,1.924 2.002,4.314 2.002,7.169c0,2.793 -0.815,5.423 -2.444,7.89c-1.629,2.467 -3.98,4.376 -7.053,5.726c-3.072,1.35 -6.548,2.025 -10.428,2.025c-6.424,0 -11.32,-1.334 -14.687,-4.003c-3.367,-2.669 -5.516,-6.626 -6.447,-11.871Z" style="fill:#c3b9c8;fill-rule:nonzero;"/><path d="M1005.229,457.322l8.286,-1.303c0.466,3.321 1.761,5.865 3.887,7.634c2.126,1.769 5.097,2.653 8.915,2.653c3.848,0 6.703,-0.784 8.565,-2.351c1.862,-1.567 2.793,-3.406 2.793,-5.516c0,-1.893 -0.822,-3.383 -2.467,-4.469c-1.148,-0.745 -4.003,-1.691 -8.565,-2.84c-6.145,-1.552 -10.404,-2.894 -12.778,-4.027c-2.374,-1.133 -4.174,-2.7 -5.4,-4.702c-1.226,-2.002 -1.839,-4.213 -1.839,-6.634c0,-2.203 0.504,-4.244 1.513,-6.122c1.009,-1.878 2.382,-3.437 4.12,-4.678c1.303,-0.962 3.08,-1.777 5.33,-2.444c2.25,-0.667 4.663,-1.001 7.239,-1.001c3.879,0 7.285,0.559 10.218,1.676c2.933,1.117 5.097,2.63 6.494,4.539c1.397,1.909 2.359,4.461 2.886,7.658l-8.193,1.117c-0.372,-2.545 -1.451,-4.531 -3.235,-5.959c-1.784,-1.428 -4.306,-2.141 -7.565,-2.141c-3.848,0 -6.595,0.636 -8.24,1.909c-1.645,1.272 -2.467,2.762 -2.467,4.469c0,1.086 0.341,2.064 1.024,2.933c0.683,0.9 1.753,1.645 3.212,2.234c0.838,0.31 3.305,1.024 7.402,2.141c5.928,1.583 10.063,2.878 12.406,3.887c2.343,1.009 4.182,2.475 5.516,4.399c1.334,1.924 2.002,4.314 2.002,7.169c0,2.793 -0.815,5.423 -2.444,7.89c-1.629,2.467 -3.98,4.376 -7.053,5.726c-3.072,1.35 -6.548,2.025 -10.428,2.025c-6.424,0 -11.32,-1.334 -14.687,-4.003c-3.367,-2.669 -5.516,-6.626 -6.447,-11.871Z" style="fill:#c3b9c8;fill-rule:nonzero;"/><path d="M1088.51,465.981c-3.103,2.638 -6.09,4.5 -8.961,5.586c-2.871,1.086 -5.951,1.629 -9.24,1.629c-5.431,0 -9.605,-1.327 -12.522,-3.98c-2.917,-2.653 -4.376,-6.044 -4.376,-10.172c0,-2.421 0.551,-4.632 1.653,-6.634c1.102,-2.002 2.545,-3.608 4.329,-4.818c1.784,-1.21 3.794,-2.126 6.028,-2.747c1.645,-0.434 4.128,-0.853 7.448,-1.257c6.765,-0.807 11.747,-1.769 14.943,-2.886c0.031,-1.148 0.047,-1.878 0.047,-2.188c0,-3.414 -0.791,-5.819 -2.374,-7.215c-2.141,-1.893 -5.322,-2.84 -9.543,-2.84c-3.941,0 -6.851,0.691 -8.728,2.072c-1.878,1.381 -3.266,3.825 -4.166,7.332l-8.193,-1.117c0.745,-3.507 1.971,-6.339 3.678,-8.496c1.707,-2.157 4.174,-3.817 7.402,-4.981c3.228,-1.164 6.967,-1.746 11.219,-1.746c4.221,0 7.65,0.497 10.288,1.49c2.638,0.993 4.578,2.242 5.819,3.747c1.241,1.505 2.11,3.406 2.607,5.703c0.279,1.428 0.419,4.003 0.419,7.728l0,11.172c0,7.79 0.178,12.716 0.535,14.78c0.357,2.064 1.063,4.042 2.118,5.935l-8.752,0c-0.869,-1.738 -1.428,-3.771 -1.676,-6.098Zm-0.698,-18.714c-3.041,1.241 -7.603,2.297 -13.686,3.166c-3.445,0.497 -5.881,1.055 -7.309,1.676c-1.428,0.621 -2.529,1.528 -3.305,2.723c-0.776,1.195 -1.164,2.522 -1.164,3.98c0,2.234 0.846,4.097 2.537,5.586c1.691,1.49 4.166,2.234 7.425,2.234c3.228,0 6.098,-0.706 8.612,-2.118c2.514,-1.412 4.36,-3.344 5.54,-5.796c0.9,-1.893 1.35,-4.686 1.35,-8.379l0,-3.072Z" style="fill:#c3b9c8;fill-rule:nonzero;"/><path d="M1109.272,472.079l0,-49.438l7.495,0l0,6.936c1.552,-2.421 3.616,-4.368 6.191,-5.842c2.576,-1.474 5.509,-2.211 8.798,-2.211c3.662,0 6.665,0.76 9.008,2.281c2.343,1.521 3.996,3.647 4.958,6.378c3.91,-5.772 9,-8.659 15.269,-8.659c4.903,0 8.674,1.358 11.312,4.073c2.638,2.716 3.957,6.897 3.957,12.546l0,33.936l-8.333,0l0,-31.143c0,-3.352 -0.272,-5.765 -0.815,-7.239c-0.543,-1.474 -1.528,-2.661 -2.956,-3.561c-1.428,-0.9 -3.103,-1.35 -5.028,-1.35c-3.476,0 -6.362,1.156 -8.659,3.468c-2.297,2.312 -3.445,6.013 -3.445,11.103l0,28.722l-8.379,0l0,-32.121c0,-3.724 -0.683,-6.517 -2.048,-8.379c-1.366,-1.862 -3.6,-2.793 -6.703,-2.793c-2.359,0 -4.539,0.621 -6.54,1.862c-2.002,1.241 -3.453,3.057 -4.353,5.447c-0.9,2.39 -1.35,5.834 -1.35,10.334l0,25.65l-8.379,0Z" style="fill:#c3b9c8;fill-rule:nonzero;"/><path d="M1196.417,472.079l-7.774,0l0,-68.245l8.379,0l0,24.346c3.538,-4.438 8.053,-6.657 13.547,-6.657c3.041,0 5.92,0.613 8.635,1.839c2.716,1.226 4.95,2.948 6.703,5.167c1.753,2.219 3.127,4.896 4.12,8.03c0.993,3.134 1.49,6.486 1.49,10.055c0,8.472 -2.095,15.021 -6.284,19.645c-4.19,4.624 -9.217,6.936 -15.083,6.936c-5.834,0 -10.412,-2.436 -13.733,-7.309l0,6.191Zm-0.093,-25.091c0,5.928 0.807,10.21 2.421,12.848c2.638,4.314 6.207,6.471 10.707,6.471c3.662,0 6.828,-1.591 9.497,-4.772c2.669,-3.181 4.003,-7.922 4.003,-14.222c0,-6.455 -1.28,-11.219 -3.841,-14.291c-2.56,-3.072 -5.656,-4.609 -9.287,-4.609c-3.662,0 -6.828,1.591 -9.497,4.772c-2.669,3.181 -4.003,7.782 -4.003,13.803Z" style="fill:#c3b9c8;fill-rule:nonzero;"/><path d="M1273.972,465.981c-3.103,2.638 -6.09,4.5 -8.961,5.586c-2.871,1.086 -5.951,1.629 -9.24,1.629c-5.431,0 -9.605,-1.327 -12.522,-3.98c-2.917,-2.653 -4.376,-6.044 -4.376,-10.172c0,-2.421 0.551,-4.632 1.653,-6.634c1.102,-2.002 2.545,-3.608 4.329,-4.818c1.784,-1.21 3.794,-2.126 6.028,-2.747c1.645,-0.434 4.128,-0.853 7.448,-1.257c6.765,-0.807 11.747,-1.769 14.943,-2.886c0.031,-1.148 0.047,-1.878 0.047,-2.188c0,-3.414 -0.791,-5.819 -2.374,-7.215c-2.141,-1.893 -5.322,-2.84 -9.543,-2.84c-3.941,0 -6.851,0.691 -8.728,2.072c-1.878,1.381 -3.266,3.825 -4.166,7.332l-8.193,-1.117c0.745,-3.507 1.971,-6.339 3.678,-8.496c1.707,-2.157 4.174,-3.817 7.402,-4.981c3.228,-1.164 6.967,-1.746 11.219,-1.746c4.221,0 7.65,0.497 10.288,1.49c2.638,0.993 4.578,2.242 5.819,3.747c1.241,1.505 2.11,3.406 2.607,5.703c0.279,1.428 0.419,4.003 0.419,7.728l0,11.172c0,7.79 0.178,12.716 0.535,14.78c0.357,2.064 1.063,4.042 2.118,5.935l-8.752,0c-0.869,-1.738 -1.428,-3.771 -1.676,-6.098Zm-0.698,-18.714c-3.041,1.241 -7.603,2.297 -13.686,3.166c-3.445,0.497 -5.881,1.055 -7.309,1.676c-1.428,0.621 -2.529,1.528 -3.305,2.723c-0.776,1.195 -1.164,2.522 -1.164,3.98c0,2.234 0.846,4.097 2.537,5.586c1.691,1.49 4.166,2.234 7.425,2.234c3.228,0 6.098,-0.706 8.612,-2.118c2.514,-1.412 4.36,-3.344 5.54,-5.796c0.9,-1.893 1.35,-4.686 1.35,-8.379l0,-3.072Z" style="fill:#c3b9c8;fill-rule:nonzero;"/><path d="M1291.382,457.322l8.286,-1.303c0.466,3.321 1.761,5.865 3.887,7.634c2.126,1.769 5.097,2.653 8.915,2.653c3.848,0 6.703,-0.784 8.565,-2.351c1.862,-1.567 2.793,-3.406 2.793,-5.516c0,-1.893 -0.822,-3.383 -2.467,-4.469c-1.148,-0.745 -4.003,-1.691 -8.565,-2.84c-6.145,-1.552 -10.404,-2.894 -12.778,-4.027c-2.374,-1.133 -4.174,-2.7 -5.4,-4.702c-1.226,-2.002 -1.839,-4.213 -1.839,-6.634c0,-2.203 0.504,-4.244 1.513,-6.122c1.009,-1.878 2.382,-3.437 4.12,-4.678c1.303,-0.962 3.08,-1.777 5.33,-2.444c2.25,-0.667 4.663,-1.001 7.239,-1.001c3.879,0 7.285,0.559 10.218,1.676c2.933,1.117 5.097,2.63 6.494,4.539c1.397,1.909 2.359,4.461 2.886,7.658l-8.193,1.117c-0.372,-2.545 -1.451,-4.531 -3.235,-5.959c-1.784,-1.428 -4.306,-2.141 -7.565,-2.141c-3.848,0 -6.595,0.636 -8.24,1.909c-1.645,1.272 -2.467,2.762 -2.467,4.469c0,1.086 0.341,2.064 1.024,2.933c0.683,0.9 1.753,1.645 3.212,2.234c0.838,0.31 3.305,1.024 7.402,2.141c5.928,1.583 10.063,2.878 12.406,3.887c2.343,1.009 4.182,2.475 5.516,4.399c1.334,1.924 2.002,4.314 2.002,7.169c0,2.793 -0.815,5.423 -2.444,7.89c-1.629,2.467 -3.98,4.376 -7.053,5.726c-3.072,1.35 -6.548,2.025 -10.428,2.025c-6.424,0 -11.32,-1.334 -14.687,-4.003c-3.367,-2.669 -5.516,-6.626 -6.447,-11.871Z" style="fill:#c3b9c8;fill-rule:nonzero;"/><path d="M1401.15,465.981c-3.103,2.638 -6.09,4.5 -8.961,5.586c-2.871,1.086 -5.951,1.629 -9.24,1.629c-5.431,0 -9.605,-1.327 -12.522,-3.98c-2.917,-2.653 -4.376,-6.044 -4.376,-10.172c0,-2.421 0.551,-4.632 1.653,-6.634c1.102,-2.002 2.545,-3.608 4.329,-4.818c1.784,-1.21 3.794,-2.126 6.028,-2.747c1.645,-0.434 4.128,-0.853 7.448,-1.257c6.765,-0.807 11.747,-1.769 14.943,-2.886c0.031,-1.148 0.047,-1.878 0.047,-2.188c0,-3.414 -0.791,-5.819 -2.374,-7.215c-2.141,-1.893 -5.322,-2.84 -9.543,-2.84c-3.941,0 -6.851,0.691 -8.728,2.072c-1.878,1.381 -3.266,3.825 -4.166,7.332l-8.193,-1.117c0.745,-3.507 1.971,-6.339 3.678,-8.496c1.707,-2.157 4.174,-3.817 7.402,-4.981c3.228,-1.164 6.967,-1.746 11.219,-1.746c4.221,0 7.65,0.497 10.288,1.49c2.638,0.993 4.578,2.242 5.819,3.747c1.241,1.505 2.11,3.406 2.607,5.703c0.279,1.428 0.419,4.003 0.419,7.728l0,11.172c0,7.79 0.178,12.716 0.535,14.78c0.357,2.064 1.063,4.042 2.118,5.935l-8.752,0c-0.869,-1.738 -1.428,-3.771 -1.676,-6.098Zm-0.698,-18.714c-3.041,1.241 -7.603,2.297 -13.686,3.166c-3.445,0.497 -5.881,1.055 -7.309,1.676c-1.428,0.621 -2.529,1.528 -3.305,2.723c-0.776,1.195 -1.164,2.522 -1.164,3.98c0,2.234 0.846,4.097 2.537,5.586c1.691,1.49 4.166,2.234 7.425,2.234c3.228,0 6.098,-0.706 8.612,-2.118c2.514,-1.412 4.36,-3.344 5.54,-5.796c0.9,-1.893 1.35,-4.686 1.35,-8.379l0,-3.072Z" style="fill:#c3b9c8;fill-rule:nonzero;"/><path d="M1453.428,491.025l0,-24.207c-1.303,1.831 -3.127,3.352 -5.47,4.562c-2.343,1.21 -4.834,1.816 -7.472,1.816c-5.865,0 -10.916,-2.343 -15.153,-7.029c-4.236,-4.686 -6.354,-11.11 -6.354,-19.272c0,-4.966 0.861,-9.419 2.584,-13.36c1.722,-3.941 4.221,-6.928 7.495,-8.961c3.274,-2.033 6.866,-3.049 10.777,-3.049c6.114,0 10.924,2.576 14.431,7.728l0,-6.61l7.541,0l0,68.384l-8.379,0Zm-25.836,-43.805c0,6.362 1.334,11.134 4.003,14.315c2.669,3.181 5.865,4.772 9.59,4.772c3.569,0 6.641,-1.513 9.217,-4.539c2.576,-3.026 3.864,-7.627 3.864,-13.803c0,-6.579 -1.358,-11.529 -4.073,-14.85c-2.716,-3.321 -5.904,-4.981 -9.566,-4.981c-3.631,0 -6.711,1.544 -9.24,4.632c-2.529,3.088 -3.794,7.906 -3.794,14.454Z" style="fill:#c3b9c8;fill-rule:nonzero;"/><path d="M1507.335,472.079l0,-7.262c-3.848,5.586 -9.078,8.379 -15.688,8.379c-2.917,0 -5.64,-0.559 -8.17,-1.676c-2.529,-1.117 -4.407,-2.522 -5.633,-4.213c-1.226,-1.691 -2.087,-3.763 -2.584,-6.215c-0.341,-1.645 -0.512,-4.252 -0.512,-7.821l0,-30.631l8.379,0l0,27.419c0,4.376 0.171,7.324 0.512,8.845c0.528,2.203 1.645,3.934 3.352,5.191c1.707,1.257 3.817,1.885 6.331,1.885c2.514,0 4.872,-0.644 7.076,-1.932c2.203,-1.288 3.763,-3.041 4.678,-5.26c0.916,-2.219 1.373,-5.439 1.373,-9.659l0,-26.488l8.379,0l0,49.438l-7.495,0Z" style="fill:#c3b9c8;fill-rule:nonzero;"/><path d="M1528.003,413.471l0,-9.636l8.379,0l0,9.636l-8.379,0Zm0,58.608l0,-49.438l8.379,0l0,49.438l-8.379,0Z" style="fill:#c3b9c8;fill-rule:nonzero;"/></g></g><defs><radialGradient id="_Radial1" cx="0" cy="0" r="1" gradientUnits="userSpaceOnUse" gradientTransform="matrix(-458.85148,-0,0,-467.217384,458.85148,233.608692)"><stop offset="0" style="stop-color:#7e3588;stop-opacity:1"/><stop offset="0.31" style="stop-color:#9b2766;stop-opacity:1"/><stop offset="0.67" style="stop-color:#c21234;stop-opacity:1"/><stop offset="1" style="stop-color:#f39320;stop-opacity:1"/></radialGradient></defs></svg>