<?xml version="1.0" encoding="UTF-8" standalone="no"?>
<!DOCTYPE svg PUBLIC "-//W3C//DTD SVG 1.1//EN" "http://www.w3.org/Graphics/SVG/1.1/DTD/svg11.dtd">
<svg width="100%" height="100%" viewBox="0 0 864 277" version="1.1" xmlns="http://www.w3.org/2000/svg" xmlns:xlink="http://www.w3.org/1999/xlink" xml:space="preserve" xmlns:serif="http://www.serif.com/" style="fill-rule:evenodd;clip-rule:evenodd;stroke-linejoin:round;stroke-miterlimit:2;">
    <g transform="matrix(1,0,0,1,-3831.856418,-2831.329164)">
        <g transform="matrix(1,0,0,1,0,-0.815049)">
            <g transform="matrix(1.673167,0,0,1.673167,4089.433701,2851.462154)">
                <path d="M177.513,128.035C170.35,127.504 158.006,124.354 157.416,122.542C157.156,121.743 157.078,121.504 160.522,112.508C161.641,109.585 161.605,108.315 164.565,109.327C168.922,110.816 168.963,110.628 173.463,111.657C176.228,112.289 185.028,112.072 186.548,111.664C196.264,109.054 198.009,102.308 198.735,97.504C198.763,97.313 199.076,95.242 197.489,95.442C196.763,95.534 196.9,95.762 196.342,96.23C194.568,97.719 191.135,99.343 188.587,99.898C180.432,101.674 179.362,100.933 173.427,99.939C169.545,99.289 164.371,96.398 162.736,95.18C156.405,90.462 154.102,84.535 153.672,83.428C151.813,78.646 151.873,76.387 151.722,74.484C151.593,72.873 150.812,63.064 155.865,54.717C162.87,43.146 174.146,40.768 175.467,40.393C176.736,40.034 182.423,39.316 183.497,39.293C185.332,39.254 197.512,38.995 205.637,45.315C215.363,52.879 216.586,61.229 217.565,66.489C217.96,68.614 218.15,69.635 217.986,93.507C217.905,105.271 213.016,113.782 209.576,117.568C208.628,118.611 203.353,124.415 194.585,126.801C190.321,127.961 188.411,128.234 177.513,128.035ZM185.509,57.043C185.263,57.048 183,57.085 182.441,57.176C169.788,59.227 167.241,77.45 178.659,83.171C180.619,84.152 184.659,84.656 185.507,84.593C202.24,83.339 202.225,62.343 190.346,57.953C188.017,57.092 187.994,57.186 185.509,57.043Z" style="fill:rgb(243,147,32);"/>
            </g>
            <g transform="matrix(1.673167,0,0,1.673167,4073.257182,2851.462154)">
                <path d="M360.509,102.962C352,103.296 352.032,103.713 343.5,103.713C338.001,103.713 338.031,103.486 332.534,103.03C331.152,102.915 324.426,101.483 320.642,99.248C315.477,96.197 313.53,92.799 312.319,87.54C312.143,86.774 311.576,81.675 312.331,78.462C313.985,71.421 317.06,69.286 320.336,67.219C324.255,64.745 329.616,64.102 330.459,64.001C335.157,63.437 335.117,63.065 340.5,63.063C346.375,63.06 346.371,62.957 348.539,63.14C350.941,63.342 352.105,63.854 351.866,61.464C351.668,59.481 348.191,55.375 342.534,55.047C340.073,54.904 331.538,53.841 323.677,56.957C322.129,57.571 322.166,57.714 321.495,57.695C318.706,57.616 312.91,46.866 321.462,42.434C326.668,39.736 328.928,40.182 332.517,39.611C333.227,39.498 335.998,39.058 341.506,39.303C342.648,39.354 344.826,39.776 346.455,39.886C347.604,39.963 353.386,40.354 360.256,43.948C361.839,44.776 363.401,46.098 363.653,46.312C372.81,54.065 371.746,62.757 371.746,85.5C371.746,100.757 371.942,101.238 370.632,101.76C370.495,101.814 363.616,102.839 363.544,102.846C363.303,102.869 363.32,102.854 360.509,102.962ZM343.5,89.966C350.921,90.13 352.074,89.912 352.237,87.482C352.259,87.155 352.269,78.931 352.229,78.527C351.991,76.076 350.31,76.204 342.502,75.968C340.229,75.899 334.271,76.52 332.421,79.443C329.793,83.598 331.582,87.485 335.373,88.855C339.268,90.263 339.347,89.942 343.5,89.966Z" style="fill:rgb(243,147,32);"/>
            </g>
            <g transform="matrix(1.673167,0,0,1.673167,4112.849833,2851.462154)">
                <path d="M37.5,102.034C28.103,101.818 28.08,102.134 27.301,101.892C26.292,101.578 26.497,100.629 26.524,100.504C26.636,99.986 36.956,76.728 37.872,74.664C39.088,71.923 53.005,40.558 53.032,40.375C53.089,39.992 52.568,38.909 52.364,38.81C52.12,38.692 52.106,38.713 33.5,38.713C24.913,38.713 16.565,39.744 14.94,32.41C13.941,27.903 15.791,23.096 16.083,22.339C17.219,19.387 18.489,20.035 22.5,20.035C67.251,20.033 67.278,19.996 68.54,20.379C74.866,22.297 75.608,28.195 75.67,28.465C77.246,35.34 69.445,49.201 62.572,65.533C61.357,68.421 58.605,74.604 58.255,75.391C57.007,78.196 47.476,99.968 47.259,100.382C46.207,102.395 44.882,102.034 37.5,102.034Z" style="fill:rgb(243,147,32);"/>
            </g>
            <g transform="matrix(1.673167,0,0,1.673167,4112.849833,2851.462154)">
                <path d="M108.5,102.034C98.972,101.815 98.979,102.137 95.431,101.975C95.25,101.967 93.311,101.878 93.684,100.536C93.727,100.38 96.498,94.162 96.745,93.609C97.116,92.776 116.283,49.14 116.547,48.522C118.571,43.787 120.384,40.402 120.182,39.567C120.171,39.525 119.457,38.778 119.408,38.76C119.146,38.661 119.157,38.713 111.5,38.713C90.551,38.713 90.506,38.825 87.377,37.976C81.085,36.27 81.258,28.882 82.511,24.503C83.549,20.874 84.157,20.381 85.416,20.097C86.682,19.812 128.737,20.018 132.504,20.036C133.204,20.04 138.06,20.064 140.573,23.439C144.324,28.479 143.342,33.263 140.629,40.552C139.807,42.761 114.78,99.606 114.386,100.441C113.469,102.383 111.506,102.031 108.5,102.034Z" style="fill:rgb(243,147,32);"/>
            </g>
            <g transform="matrix(1.673167,0,0,1.673167,4077.615108,2851.462154)">
                <path d="M275.5,102.034C264.749,101.787 264.453,102.234 263.819,101.271C263.442,100.7 263.492,100.632 263.492,78.5C263.492,60.146 262.318,52.452 271.671,44.712C275.134,41.847 280.794,40.217 282.555,39.968C282.95,39.913 286.576,39.401 287.49,39.33C297.335,38.574 314.822,42.371 307.671,55.596C305.383,59.828 304.149,58.692 302.601,58.19C291.275,54.511 286.286,58.482 285.482,59.483C282.658,62.997 282.889,65.772 282.889,69.5C282.887,100.795 282.962,100.93 282.447,101.45C281.703,102.201 279.737,102.034 275.5,102.034Z" style="fill:rgb(243,147,32);"/>
            </g>
            <g transform="matrix(1.673167,0,0,1.673167,4084.977141,2851.462154)">
                <path d="M236.5,102.034C231.805,101.872 230.533,102.209 230.162,100.58C230.104,100.324 230.111,100.32 230.111,59.5C230.111,49.299 229.471,45.511 233.622,42.683C238.438,39.401 246.547,41.819 247.621,42.14C249.929,42.828 249.508,45.545 249.508,48.5C249.509,100.243 249.509,100.241 249.462,100.493C249.123,102.336 248.302,102.034 236.5,102.034ZM241.472,13.945C241.651,13.98 244.267,14.053 246.731,16.23C254.576,23.162 249.544,37.08 237.565,35.066C229.659,33.738 225.219,21.349 234.358,15.26C236.953,13.531 240.516,13.976 241.472,13.945Z" style="fill:rgb(243,147,32);"/>
            </g>
        </g>
        <g transform="matrix(-0.825893,-0,0,-0.825893,6151.627772,4229.616369)">
            <path d="M2639.724,1368.43L2678.303,1431.953C2682.781,1439.327 2682.883,1448.555 2678.57,1456.026L2599.491,1592.994C2597.393,1596.629 2593.523,1598.877 2589.326,1598.9L2543.404,1599.147C2543.404,1599.147 2527.786,1599.443 2518.96,1586.436C2509.266,1572.149 2519.322,1553.689 2519.322,1553.689L2575.748,1458.795L2575.739,1458.795L2639.724,1368.43ZM2569.392,1458.795L2491.995,1458.795C2485.549,1458.795 2480.315,1453.561 2480.315,1447.114L2480.315,1370.264C2480.315,1363.818 2485.549,1358.584 2491.995,1358.584L2627.116,1358.584C2630.249,1358.584 2633.253,1359.828 2635.468,1362.043C2635.82,1362.395 2636.148,1362.768 2636.45,1363.157L2569.392,1458.795ZM2649.393,1683.214L2610.815,1619.691C2606.336,1612.317 2606.234,1603.089 2610.547,1595.618L2689.626,1458.65C2691.725,1455.015 2695.594,1452.767 2699.791,1452.744L2745.713,1452.497C2745.713,1452.497 2761.331,1452.2 2770.157,1465.208C2779.851,1479.495 2769.795,1497.955 2769.795,1497.955L2713.369,1592.849L2713.378,1592.849L2649.393,1683.214ZM2719.726,1592.849L2797.122,1592.849C2803.568,1592.849 2808.802,1598.083 2808.802,1604.529L2808.802,1681.38C2808.802,1687.826 2803.568,1693.06 2797.122,1693.06L2662.001,1693.06C2658.868,1693.06 2655.864,1691.816 2653.649,1689.601C2653.297,1689.248 2652.969,1688.876 2652.667,1688.486L2719.726,1592.849Z" style="fill:url(#_Radial1);"/>
        </g>
    </g>
    <defs>
        <radialGradient id="_Radial1" cx="0" cy="0" r="1" gradientUnits="userSpaceOnUse" gradientTransform="matrix(328.487157,0,0,334.476223,2480.314961,1525.821878)"><stop offset="0" style="stop-color:rgb(126,53,136);stop-opacity:1"/><stop offset="0.31" style="stop-color:rgb(155,39,102);stop-opacity:1"/><stop offset="0.67" style="stop-color:rgb(194,18,52);stop-opacity:1"/><stop offset="1" style="stop-color:rgb(243,147,32);stop-opacity:1"/></radialGradient>
    </defs>
</svg>
